<mxfile host="Electron" agent="Mozilla/5.0 (Windows NT 10.0; Win64; x64) AppleWebKit/537.36 (KHTML, like Gecko) draw.io/26.1.1 Chrome/132.0.6834.210 Electron/34.3.3 Safari/537.36" version="26.1.1">
  <diagram id="MSWL7S1DBx9-yxAGKnKn" name="Page-1">
    <mxGraphModel dx="2403" dy="2498" grid="1" gridSize="10" guides="1" tooltips="1" connect="1" arrows="1" fold="1" page="1" pageScale="1" pageWidth="850" pageHeight="1100" math="0" shadow="0">
      <root>
        <mxCell id="0" />
        <mxCell id="1" parent="0" />
        <mxCell id="J91V88tePF2h57GKHvIk-42" value="" style="rounded=1;whiteSpace=wrap;html=1;strokeColor=default;fillColor=light-dark(#ced7fd, #ededed);" vertex="1" parent="1">
          <mxGeometry x="40" y="70" width="210" height="338" as="geometry" />
        </mxCell>
        <mxCell id="mEvItxHZCAoGKYHvwLgl-1" value="Detection.Chat" style="whiteSpace=wrap;html=1;aspect=fixed;rounded=1;shadow=1;" parent="1" vertex="1">
          <mxGeometry x="65" y="246" width="160" height="160" as="geometry" />
        </mxCell>
        <mxCell id="J91V88tePF2h57GKHvIk-24" style="edgeStyle=orthogonalEdgeStyle;rounded=0;orthogonalLoop=1;jettySize=auto;html=1;entryX=0.5;entryY=0;entryDx=0;entryDy=0;" edge="1" parent="1" source="mEvItxHZCAoGKYHvwLgl-18" target="mEvItxHZCAoGKYHvwLgl-1">
          <mxGeometry relative="1" as="geometry">
            <Array as="points">
              <mxPoint x="100" y="190" />
              <mxPoint x="145" y="190" />
            </Array>
          </mxGeometry>
        </mxCell>
        <mxCell id="mEvItxHZCAoGKYHvwLgl-18" value="Ollama" style="whiteSpace=wrap;html=1;aspect=fixed;rounded=1;shadow=1;" parent="1" vertex="1">
          <mxGeometry x="60" y="78.5" width="83" height="83" as="geometry" />
        </mxCell>
        <mxCell id="J91V88tePF2h57GKHvIk-43" value="" style="edgeStyle=orthogonalEdgeStyle;rounded=0;orthogonalLoop=1;jettySize=auto;html=1;" edge="1" parent="1" source="J91V88tePF2h57GKHvIk-6" target="mEvItxHZCAoGKYHvwLgl-1">
          <mxGeometry relative="1" as="geometry">
            <Array as="points">
              <mxPoint x="195" y="190" />
              <mxPoint x="145" y="190" />
            </Array>
          </mxGeometry>
        </mxCell>
        <mxCell id="J91V88tePF2h57GKHvIk-6" value="elasticsearch" style="html=1;verticalLabelPosition=bottom;align=center;labelBackgroundColor=#ffffff;verticalAlign=top;strokeWidth=2;strokeColor=#0080F0;shadow=0;dashed=0;shape=mxgraph.ios7.icons.data;" vertex="1" parent="1">
          <mxGeometry x="154.81" y="77" width="80" height="83" as="geometry" />
        </mxCell>
        <mxCell id="J91V88tePF2h57GKHvIk-8" value="EventBus" style="rounded=1;whiteSpace=wrap;html=1;shadow=1;" vertex="1" parent="1">
          <mxGeometry x="40" y="466" width="760" height="60" as="geometry" />
        </mxCell>
        <mxCell id="J91V88tePF2h57GKHvIk-12" value="" style="shape=image;verticalLabelPosition=bottom;labelBackgroundColor=default;verticalAlign=top;aspect=fixed;imageAspect=0;image=https://herve.beraud.io/images/blog/rabbitmq.png;" vertex="1" parent="1">
          <mxGeometry x="50" y="471" width="50" height="50" as="geometry" />
        </mxCell>
        <mxCell id="J91V88tePF2h57GKHvIk-15" value="" style="shape=image;aspect=fixed;image=data:image/png,iVBORw0KGgoAAAANSUhEUgAAAOEAAADhCAMAAAAJbSJIAAAAkFBMVEX9/v8AAAD///96enrJysv09fbk5ebs7e76+/ze3+Dw8fI+Pj73+Pnh4uPt7u9qa2uampu7vL1MTU3S09RmZmcwMDCNjY4oKCjKy8ykpaXQ0dKqqqsfHx81NTV1dXawsbJcXFxLS0yWlpeHh4gODg6IiIkZGRk6OjpgYGC3uLkjIyNUVFVEREQcHB1MTE0rLCwl13s3AAAQGElEQVR4nO2da3viOA+GQZwKPQCl0xaY0hZKpy2dd/7/v3tztB4nTmLZCYVcqw977XbB8U1sS5ZkudMVydfr3W47W3/2V6vFYjEOZYgySmWQykWnXK7UJ9V3tRavw2cEz1qt+vPn5Ww3PfySdblj+8Ffm+XjkORSAdjpOLQ5Wa17f2olfN/NJ5b9PYbEXbl63D7VQ/i2HZ8MG0rYqdGyeshWEX48niJdKkHfxj0vwt7ohPFiCYbrvTPh5vT5QqlgLCb8Mz4LvlCIbl7khOuz4QuFqC8kvBydE18odPEhIdyd1QuMhWhtT/h5hoCB0MKWcHyWfIHQ6MuKcHiugAHiIG/j5AnPbo1BoU7OIs8RnjVguKT+riA82zmYCg3KCfvnDhggXpcRzs4fMECcFxO+tAEwQNwVEl60hJD+FRC2YBLGQmMz4V1bAAPErZFw0iJC+msgbMU6mgqsp4rw7Tz3E0VC3znCdasAO7TKEbbrFQaIvzKErZqFoaiZmBK2aCGNhehNI2yRLkyF7jXC1pgzLOkeIyHstI+wQ09AuGkhYIdmQDhvJeEYCAetJCQm/NNGwADxThHuWkq4VISfLSVcKMKzdyGaha4UYdus7lQoJXxrKWCHPhLCj9YS9hLCXmsJ1wnhsrWE84SwpcoiUReddm6dYqFhQthSdRgQ3iSEZxzWLpdI5YeEZx72LRFKCFu5d4ok9EaFhC0JqhmEvmLC1gJGbuFOi83SgPCy9YS3EeHfugit0/MbbUJr7hAR/q6nPaLRejO9631euXeQqH8/nU5ndSXv0ktE+K+W1mh0l4axdo6LM9E6iTV0/6xqYaRpRPirlrY+uyxvC5cmafAKbfTqQKyRMPEvK3FwMUdmMsihBsSE8KmGlpbdjIj3KzTJNlGD64E2EeGld0um5FyhsUuUP8i09e9Yrx5CFYxEEbZKpiMT3tu6hPDWux3jgQ6RbySbUOj0KxmajQl98/XyMyiWK0G7oWo2iG9MLCH0ndGYCvjuNo20ifzA/+q7zCeEU79mYt950rkrHG32ih9f4XO4xKfy6Nm3mNDTXYoHOa610znPtg2jKtwHVimfKfAcXzURqvyq7j3FSjYRa0ULS9XfQM/TIwP7ZcHUQkgj7k64tkT+LfVKLdvgr0RrC/xofr7cegh5kMYNhXZEIpaJVrDOfEWmGmQW+g3Tegj5yFhsb0OCrqU+g0Ea/yYEWa9+280aCIlHWLrPJD6ZYzeLwGBLbD3iw71O2xTVch2E/MbSbADYZ1hpbDgD8po2wSuyV9ioFsJn1Zd0OwHQeyvCPA5Ae2nrWgh5PKkhyQP3O9O00QsDaefK1OaB+/7jhLdpV9gZQsqfAWZNhDYYXl9fDwc6Jhg0/OmdoQmH3tVBaBhOsB9ONGIANHzusZb77n0OU0giddrswE3w4PfZQtVACEYpG9pgk4RLTYCy2IM5nb7z+3EECXPunptYaE38JOG1oSdg5iwDiIvC4hVP66jug/pvNmBgR+aTYl8HoUqJB8UFOnJXVdNhewEGDOg+bsLHl1EHIXcP4qy8En6YT5CjPPNHbqAJtb/w6l4NhNw9XB3vuk5iXGB9UtDrIGT7BVqhqooqZkHVxz+SjxupOcLyuVckmObK28yTIXzA7lXPPpN8GIfBaRJ+Ggl+T2fz/qI/n03/Gv//5owI5/nuXy6xUtj10lDFqnfahF+lhL2xbnCHin6T+9BpE2orTaYcTm9i2KkT3WQY98aV5vUkCR+x45dFEd3AXtXG6j02oZwjhx8m5FUTdjno0w2sruL2SdMr76jx1a7spzU+j8drXkcw1lkertbrOz1zLUJS8QGfoxJ1EPIuJzCbb8bP2813F6UyK1A7O//WfZrer1ejKzody5tf1w6HJr/Y6ibGhu/d8Q74p3dPF4bu4RC1aaOwEFkkPvm99XoxDHJv17JeqSMrtqEBY8t1EJpDm5FcWvqricoqWPoc/qyFsMTItvYhgacgJ16BizrmYclWUKDIqLjs4evPehOJTAtoIoIJZK4lF8uDRwqzNyGVuSuy/u7ylkoK5n65I/oSmt7g++1mv7t7ens7iKK3NLp9e3ua7vab1/dcmw/OgWBPQsqto5v5CPaAwsaUjOa5H871NIEfIdGr1ou/zxf1pL6GTuR1JsvqxrGPfoT6HFzXWVE5aEvPBfwtST+CdnwIdX/ax6Dmc6hEE20OvDq170OoG5PLBs7Zkp6z6rSJ8iDUqxM2dPhNd/e4pEf5EOIktNpBuIg+UBzGiTuhZkg2eHxRe4uWOxXt++6ElzgHxV8XPAjnolxlOBPiT9twdSK0yR066kwIVmTDB98wt1M+E10JcSfQeGUbyFmQJy04E7KvWrSBcBMYMGKd6EgInr7mFAU8DlSGdJi6EvI6439Uw+Z57MWRKiZXQnZcHKVWAbiCpMPUlZDjm0c5QQwWovQAkxsh5AMdqVIf6EThbt+RkKehdTK+n8AwFZrfjoScLHmkYgwQ2RCW6HQkZC/KcQBRPUn76kaorG5hhF27WEz2TZVFJgx5u50KooeSH7Sw++E1YuP5erbf7bfLz8Wg+GOmkL8yooQHoZwIIZ6WnxREq+XyMdfHMMN0q0dO/+36HcPnxuvZPH8WnPbp1x6OS5iLXdJn7M7VzXGiydZwO0qcgqJ9cByPxvtcJjg73mQa2Jcwqyx4uwpvN+ArDt4ckJG3LNkJfiqEGK5WubCEBeANMlVBCQwnZ8b/jxFm+wHb8fRcKg0rr++bpxnt6APWQXgefh1hHhZm7+oZB3HkNpf+9XQ4HL4zf9vHiIR3bunOH9+1VBhlZX2oZyvpDtzIC6+9lqft402iDAeLJTq0P+IDa/gnfSbyI4U7breTzuAq1buhufmjcwbAvB+Cposol3ypz0v0aYw46ZsIX5tGSsgkml2qEYa7Dsgy3efDGgHks9ZxLSNAI/S2S6WEBXsLLW022IzzUYynYYH9cqFeW6BaNa+aVpwa2IWbfEdC3h9qMxiPRQYzlFNINoVWKFx3FwwHHNTaqUOYoW77Q2nFAdjja1E9zrm87EB/cxaK1lbqZgpXLXaPaA58OD8jPZ/vSsg2SmZRX8VG2+ECxlzF2qDGfLi3Tadypll+t45+GmmKKrj33jOGJfXvN70+rqN/0CyL8yr17UOa8hXpBxrvN71nPfcCR7/UeZkQ/s/DX5oxvnnzlOaHQlINTTaH/YRudofeALG/1Ew07r5wejp6hMWp4phpV5Drki7wvRzKLjuf0nFaoAiwrog4vuZMCMUvPszrSPrD4yvEvKcxkiezt4AQTB1x0olzfRq0sc1p3Inhg4pby42+McxEc0Ng+MkPPbsTopFtvDkisSS1tQ/WYF0bJCuXSddh5MnBtedeY4jwpIQpwJY4c/SFSG0V9SmX/l4GAO29u8Sq3QmxrJBJnyaEGfhkAmdQ0sZMhLg5cUjg86iEhaPHtCtNCDMx/nj3nL0drOwdwqrtEov1IQSdaNqzmeahYsm+w3nhPEQXiMupdR9CUMMmRZaspRnnX7L9yI7dZAUyOUpBw7icDnInREvqzeQcSieQXpkkeVv6Fihty0iAmUkOVU48CGEaGrds6dzSVyGKBu9txphNfgxjXg5mlznE8jwIOXugyBT5Z1ofiB77mYNQquqSeeuHq6k8j9aZEKdHwQKg3vJ1BjG7kKY/VsEbwiVNfvudOyFbJ0WbS1KHz0rXQLr4Nv4S8Al2YQidpR13QvxdC6c/7yI/S7wY49T5WmiwoCvcNWNITsiDtMStwJbdy9AYSiO6UO65r2JXB2h98UE9Z0L2G5YkJhIkMN71KS9jMFhKjGow88U3bzkTsl++bHmjKyxK8zHrjyeD0ejqZjSYDB/XGzyTX6rqIGNIms+eEIodWDwzyn8cuoI01DIpn18wZMQ5URs3Qp6GFW6FsnNfLJcVmbGQkCydiI61oEEJV6W3EPUNBXh1mVWlLYCJKHZ8xoTC2Dhqw+p5kT0akpWehReb5720uHpo1jpUneej8jbfDN7Q52sB3tfMVGwh34TkJ9W/GVedl9Z843QTu0ETKIbJvJeNiz5M19eWeTUwDISumuTmAOHtDzAtrJ3skf67uh4rmUjShsDJLtxBhYfP5HeUgLKQHURwzokCnS+Nrl0mhLLnFaebNCTgcZMS/nO5SQfih0e6zsz9iWEgMCSUuelgzBwhjz16Iu9lhAd00tuQZHtnYyHBRgVcGbIiGZTeaCVbgiHefvxRKpuH0U/TES/BZal7zQiMGiHhKCGUDTYg9L+Awu6JbHrL8rzV7YCyRZ89ML4V+a2f6FquNcqdCAmlaTjKADvSbdewQRQu+58JofDueExlPwoih4GzQZ2qL84SQmFEAGIWXuXErZ/H6lCaO99LCKWGKRvCch+tg4BPwao+OHzzfymhcHSzAj7O2TWehkITQ91aLd6TsPPrGKdm4EIPWVpbbClEhELNzUnJLifIpQIlCqUZwn1FKM2DhtP4zZ/Pg9QWoYURR5AjQqGnBm+wavzGa8xsEcYtYi3TcZlOmA7sVlZF8Cx28AgNjMTdEv9TOhEhzaXpigMQbRa6FBKtFhOKEzDvnJ8rfBCmDAlr0yVBq8RxJszG0dK+GtQYlAbLHaZ8ukPouL0IfIkNVh3Q8v+lrzBZ8TtuvcRbnZq7mx2DzWKXSRqh7Tj2EsMRjTkz8LYs8VKROltSQp/SEY2tNUjo/AqUi1661nhmnNk9BH5G6Qlg9VVFKEv0x3nY4E4fLGDhXGA9ymEWWZ1DCO563lFY+hg4KSSKHYJhyYQSXwY+2aeiePWDYEGTeBLBDwFJhoLp5FX4RyJo5EsqvkIOMxA+2bt5IvdALJ73Q1Y+CU6h2hv5aJAAob3XBX8ijwqxds/ii/Wsdb52OBcJ7e+c5BaEnki5wLFG2+GilzzUCEuyy/QmOF+rwYU0eRYvan9tCbWqmRqh7WSGBNojeDGk5ysz9/johHaeEIjNNKoqkqfZJyjFn8+ckM8QWtmYsDs8QvQJHMI2rohc4ewsoY1ehV+pwbqX6mk8ES2WmvwV5jlCi07DuHEt0iwRzlCqro1guEoiT1itdsAePkY5M15qKj3CprsyDISVVYE5v1ma9OckYOVXPM54U4aJMBjvpU2xTXSEwpDaVrS8W+Y0SCNh97JU89RzU5G1mG9cyn+sYy7ybybkqjHGtlT6pefl7nYCJy6K3W1EC/NlboWE3btik7qeu5isxYaQ0BtgSRjVkS9oTkWDTmSUEs3zNypYEHZ/zwuKqp3WSkO0yqbn2hIGCsjIyMkYP68tgv6tXksZygm73bfZKAcJm6emY2vR4xRBVuOHicfrqlJbVYSB3K4nmWIdPPWPkG4CWdfaNZ7hNRhzi0trLQgDebrvTzh9GSLrx9hbcEw9yhpIq2mtZq9WfbcjDOV9up0vJldR6+qPD4YTW3ULz4l59OIG4/lsk7/n258wZbo8TGETPX/sNywrDiH2Ni/flRXuvAnPTv4jPH/5j/D85f9iE7fIQd6I1AAAAABJRU5ErkJggg==;clipPath=inset(16.67% 22% 2.44% 16.22%);" vertex="1" parent="1">
          <mxGeometry x="65" y="126" width="25.97" height="34" as="geometry" />
        </mxCell>
        <mxCell id="J91V88tePF2h57GKHvIk-19" value="" style="shape=image;verticalLabelPosition=bottom;labelBackgroundColor=default;verticalAlign=top;aspect=fixed;imageAspect=0;image=data:image/png,iVBORw0KGgoAAAANSUhEUgAAAOEAAADgCAMAAADCMfHtAAABIFBMVEX///8ku7H+0QoAd8wbqfXvUJiTyD7+zgAAtqsAovT+zQAApfUAa8gAccoAc8sAdcsAacgAbcnuPpDuRJPvSpWPxjOLxCaQxzeKxCP/9NH+5ZD/99//+un//fbL3fGA0svV7+3o9vXE6eb0+/vu9uSU2NP+1Cn+1jn+2lj+4Hf/8sn+3Wn///z/777/6qfk8/223vva5/VjycIZfc6x4t7+2Ev+6J797PP+9vr2q8r4v9b/7LL60OH+21vzhLP0k7z+4oT84OtEs/ai1fpamNekw+eIy/k5idJ8rN45sPbL5/xEwrmKs+FrwPem0Wfg7s6czFLS57ev1Xi72471ncHxbafwXp/4udLyea1hvPe80+1TldaYvOSuyurZ6sHH4aT/knecAAAMbUlEQVR4nO2daVvbOBSFyQJxSELIHvYlLGUpYV8KbdlaSoFCoS1LKfz/fzF2EsuSLVuSdaWEeXK+zdS1886VzpGulUxPT1ddddVVV1111ZVKjS6uHC5tzc9FTc3Nv1sY3h8aa/dnAtPy4vBWwlQUl/nP/dGllZF2fzh5jW7Pu+FIzqX3b7mWYyvz/nQO5dJiuz9oSI0ssfFakNHhN1jIxS1OvCZj/8Jouz+xmIbmRfga6l94Q3Uc/SjM1yjkcLs/OK+GQ/FZiNE34Tkjc2EBLcal5XZ/fqaG+8PzNTTUboJgjQk5KFX9HT0bR2TxLCXetRvDX++lC9jUXKdm47bsFERKdOaKPHRI0BA70W8gATsScRsUsA0DdXfn6Ghnx//P98HmIELUZze7B79+F/JN/fm0d0S7ZhEc0JSm5c2Hh3yhWOy1VSzke395ajkKPESbmtfBt1coOHSIMv/gKqQKPnOcLijnuy8UPHgtxk+72HVLSkpoIu6r5dv9nafzNRk/oAv3FQGqdpuDvHd84sqjkaoMUO1UvA8oYJPQvlKNzTSV2FYG+IsF2PvHvhRqvU1HVDVO95iAxU/2tbDLNbc+qgE8YAL2Fu7tiz+qBFS0QN1hA/YWDuyrlQKam0UVhH+CXbShvB2IY0oHqVnE9/CAez45T8q+elExoYIi7nKMUcxooLdNHiXAm6ifOcZob3HPvnxJMWA0ugUMyFVCfUYThd8M881CbUZj6RCWkIev1zGaIQ2ECVDAI65BWnywr1/RQQjqNXs8PoMZzYJ6wGgUdCv8wEXoGM2cDkLQYcrlM715u1WzrGGQwi5OeZakVg3t60f0EAK+jxI1GnUdDEKAoX/ANUqLv+zrD7UAQk7ED1yEBdSGmtdECLes4SNERqOyC0UQwvUVOQnty/UYTRRy4cY1D4u/7cs1GU00Cvfmm8tLtRuNKTBCrr2TYzRbugABzZQDUE+720UId+jtE08Xyr5YZbvbRQgXF/ccVqOn3U0Swq1MdxgvZEwVP9sXq213E4SAW8S9h3ye8loUk9PufqcLELrhdnT/qRBA6RiNNkAFLcWenQ+fe30o22A0KggtWacw8vmiGxMZjfJ2t3LChg72fpMT0zEa5e1ujFDxGamjvQdnYjpGo77d7RBqOCJ1ZE9Mne1uh1DTCSnTfv7ktba7ESHQAan6ao15zS4qoUajAdpbrB4nU8nzq9U65/UajQbk2MlJPBVvKJVMXZ2scfwNjUYD0PVetflsyuTj1++MIaul3d2U9Lma+jnB16JMJY+DKMdUnLj0I5QMi5Oklw9Rxn0npj7AqGRWPFIKSA7Z+NUJhVLHi7WG5uQ2+PU4A9C2n8eT766/qocvIdnSX+Ph85mYWjbAsudo13ynoC9lHJVSx6s12a9B1QUBGzpHf/1QOWK/ZDu/zj9EMSVREZVvgclN07g4YRg+U8foBqrf4hMpcTq48UUQkBUTvkVEa7pRpalPpsRZJpbNZYQY/YOepUd0D4WHS8mUqG8MxExlMxv8YzWUy7SKiPJf3YGhxBL+Ydcy2VhT2fQpL+FxaMB4/ArdRdW7GTIlntI2oKmBLM/Ox9xNhC+hWUSU+4q2wWRKfBmM4coOcs1GCT4z+L+i+yjZQ5Ep8S0dcyn9jQ14EtJHPUVU8naG2Cyd5tyAsViGPRml+MwinqA7wfN5UoIiJuKqXAlNRHQr6Hf51JTwKsdAlDFStUV0pUQuSwc0ES+DACWyEAndDLTnFpASbg0+BRBK+kyjiKv2zSA3UWRKPA/681nZH9D3lB6kcXwTtc/7c0lMka+YvCnhQjzzBawBDFJsE9XTsxKFYWSmhGsq+ib/d/lBGsc3Uabei/9ukkc8KeFC9Gt2foUgTLlmwdBHua0UZ0oQGvBb2zwCAMa903x0QWJC+u0lgjXoYzbyeKlz6vgYGw47IRP8KcFRRHmjSR1Tb2wpnOkE7iWClKb+l5bO+9QV7ba2QpiOWErgyjzTPoKslSa/0u6KSdh0BFMCUzamgDB5gt9s4mKa8ggx0xFOCXyY0vo2coTJVfxe60bEiGxSHjI2zMmYmMff0ddjPCmBaYC2AJciTBLvZy6MiCnDmKVNeC7TCZcSjrIbwIQpvAtUi9gyjIkpypPYppM4xK/nTglMtPW3jJfit5uK4DLWJymMQ1uBptO/gl8skBKOMpRNVGhCMucnjQgpg2o6IwGmEz4lHFEnYkhCMuen3YAWo6DphE8JR1laO+M8HOAjfo9NCqCo6eApURNMCYeQZjVXYQCTxEJmlg4oYDqulODaS1CVpjwtTBODXMhM+AIGmM473HS4O05sQsqgCREXnpwPFt10sJWOfEo4hLQdlLDV0HKewRhoOgAp4RDSXtSIboEJwBobr8VIM53lbdN0yB8suQyVEsGEoi1v/5wPZqSbzv48REo4hLRRKrgHDsx5BiTVdHCFTYlgQpG8YOc8g5FqOrYkUgIRUm/8nbuIXDnPYKSaTkPiewmPshn6rXm73inOnGcxUlc6PeMyKWET+nS+OYsokvPBjDTTkUuJlnx7plxFJBsWzJxnQLpNRzIlWvI9YsNzZo9cyPDkPIORNB2JlRqmnO/JjCtmJobKeQYjbjr/ZHOiIbqVNsQCTIXMeQaj4dQxBlBE6vawJZbZ4ICCOR8sp4iSqxlLuX/+hIGvoMiGhXjOB8hwBuqGfBHpbX1b/ocTAXI+ABHd+Em6iEGD1JJfOwMm530JZ+GKSG15sxHBct4P0SmiZCRSmzSEajRE0JynEjpFPJMrYqDPtHTsmYvQOU9DRPYwLlVEdgktXblCQ0HOewknYIqYDjo05Ig8Da0m5z2IaBm+JlHEgAM1pIivrinLeVJOEf9K9BF5vwxqlTGlOuddwooYegvlf2CIotqVxUg2LIBz3qV19JzTkH2Mgb8CgKbqV8kksZCBznmXjEnJIvL5KFlHIiXgc94lySJmc/yTkCoFOe+SU8R6CDvNUvvAAlKS8y5doKd9G8wNiDlqdjDE17ww1S7U85lFdLbC9afLs3SOv7OYZS64gzWlgy+CF7Gh8ee/uXSGp5i835rxk8KcJ2V4m+Fr/06zzGLmztg/bhEklTnvFvUD1J++bQRQZgcDD+l3FqBjp27Vxi//mpSUIZsT+HoeXev6ALFNFFVrX04zadJlMznqWUQhaQT0GaWE6v+sIdukzGbSl3IzsCGNgxRb1gSq1syS9MYzAF/PlM5piJoZHD8LMf4sO/9a0hYVETwtqn13P2dgAJjSaqX2oJsp95VK5dKtFkq1m0KX7Ie+lPosVUrl8o/Xa8X/V0CdhMhoXpuENuXN3YvCYire9+JyjOZHpY9QpVTtUzZkdRIioyn1eVWxJubr9dsmtJtRptHQZVJWzYkJ9xvCugntZ77QaohTmhPzTRLSjMZHpSqcwerzUsdobisswr4SXBE1EqJXwcwSmmP1DoxQ35oGGc2Yn9HgugEj1LcuRUZzzUNYBiPUt7dAfSi20ViEcPmvjRC9feIwGpMQLvu1tEojuNFw8JlmCkc4oYtwsvXAsSoXIVxc6Ip8MaOBJNRlpmJGAzkPdVmNmNFAeqkmq3GM5oYHsK8MuMHQMxGR0SxzGU1fCQ5Q00REXSg+o6n8ACTUNBHtp/3kMprSKyShlkREm8M7PqMBbWfoGKbO5pDPaCqQgFpezqAu1DJf3sNtDxvS4KbsLhShKnBnsaZhmNrP4jKayi0soA6vETMa6BJq2AZjRsNBCD0LLal+1e20u3mmIbCRNqS6iEJGU1XQ2lc+E/na3U2VQZczSIrtFG0O79jtbnAfbUltZxhtDt3v1fQBqt0mOptD1jQsqwNUajZoczjD2BxW1czBlhSu3ZxzNK/VgGFaqihxUUfqxin2kJkfZR/GSvVO8ZkFZX7qOq93fUNjLFVvNRw9UbNRxL7WZTPeVksEZKlcutNzgEhFZGBfeXK0/HJ3Uy2XS6bK1mkTxfMPE7zbGL6n9ZZnrl9+/ny51nX6qyXwb11csJ+pWcCInQcIjNiJgJCIRmcCwtmNv8m0XTDnM7w52EGaisgzUr4+0lGS/SqbcUH70a+OktxI7egRaqsWvozGxWS7Pz2fpsPNRsPw/aWvztOmIc5oTEB8DUSfZsUYjbfGZ2mT/wu0fr/S1vGanOAppGGsd3gCBmp63QikNPE2Oz4AWZqctSg9mNa/u5iYfpuj06vJzdn1iwZUS5H12c3J/wsdptrUpKmp/yFZV1111VVXXb1B/QfLIPdsEA/Z1wAAAABJRU5ErkJggg==;" vertex="1" parent="1">
          <mxGeometry x="182.75" y="79" width="20.09" height="20" as="geometry" />
        </mxCell>
        <mxCell id="J91V88tePF2h57GKHvIk-36" style="edgeStyle=orthogonalEdgeStyle;rounded=0;orthogonalLoop=1;jettySize=auto;html=1;entryX=0.889;entryY=-0.009;entryDx=0;entryDy=0;entryPerimeter=0;strokeColor=none;startArrow=classic;startFill=1;" edge="1" parent="1" target="J91V88tePF2h57GKHvIk-8">
          <mxGeometry relative="1" as="geometry">
            <mxPoint x="720.037037037037" y="406" as="sourcePoint" />
          </mxGeometry>
        </mxCell>
        <mxCell id="J91V88tePF2h57GKHvIk-46" style="edgeStyle=orthogonalEdgeStyle;rounded=0;orthogonalLoop=1;jettySize=auto;html=1;entryX=0.138;entryY=0.044;entryDx=0;entryDy=0;entryPerimeter=0;startArrow=classic;startFill=1;" edge="1" parent="1" source="J91V88tePF2h57GKHvIk-42" target="J91V88tePF2h57GKHvIk-8">
          <mxGeometry relative="1" as="geometry" />
        </mxCell>
        <mxCell id="J91V88tePF2h57GKHvIk-55" style="edgeStyle=orthogonalEdgeStyle;rounded=0;orthogonalLoop=1;jettySize=auto;html=1;entryX=0.5;entryY=0;entryDx=0;entryDy=0;startArrow=classic;startFill=1;" edge="1" parent="1" source="J91V88tePF2h57GKHvIk-47" target="J91V88tePF2h57GKHvIk-8">
          <mxGeometry relative="1" as="geometry" />
        </mxCell>
        <mxCell id="J91V88tePF2h57GKHvIk-47" value="" style="rounded=1;whiteSpace=wrap;html=1;strokeColor=default;fillColor=light-dark(#ced7fd, #ededed);" vertex="1" parent="1">
          <mxGeometry x="315" y="60" width="210" height="338" as="geometry" />
        </mxCell>
        <mxCell id="J91V88tePF2h57GKHvIk-48" value="Detection.PretrainedModel" style="whiteSpace=wrap;html=1;aspect=fixed;rounded=1;shadow=1;" vertex="1" parent="1">
          <mxGeometry x="340" y="236" width="160" height="160" as="geometry" />
        </mxCell>
        <mxCell id="J91V88tePF2h57GKHvIk-49" style="edgeStyle=orthogonalEdgeStyle;rounded=0;orthogonalLoop=1;jettySize=auto;html=1;entryX=0.5;entryY=0;entryDx=0;entryDy=0;" edge="1" parent="1" source="J91V88tePF2h57GKHvIk-50" target="J91V88tePF2h57GKHvIk-48">
          <mxGeometry relative="1" as="geometry">
            <Array as="points">
              <mxPoint x="375" y="180" />
              <mxPoint x="420" y="180" />
            </Array>
          </mxGeometry>
        </mxCell>
        <mxCell id="J91V88tePF2h57GKHvIk-50" value="Pretrained ONNX" style="whiteSpace=wrap;html=1;aspect=fixed;rounded=1;shadow=1;" vertex="1" parent="1">
          <mxGeometry x="335" y="68.5" width="83" height="83" as="geometry" />
        </mxCell>
        <mxCell id="J91V88tePF2h57GKHvIk-51" value="" style="edgeStyle=orthogonalEdgeStyle;rounded=0;orthogonalLoop=1;jettySize=auto;html=1;" edge="1" parent="1" source="J91V88tePF2h57GKHvIk-52" target="J91V88tePF2h57GKHvIk-48">
          <mxGeometry relative="1" as="geometry">
            <Array as="points">
              <mxPoint x="470" y="180" />
              <mxPoint x="420" y="180" />
            </Array>
          </mxGeometry>
        </mxCell>
        <mxCell id="J91V88tePF2h57GKHvIk-52" value="elasticsearch" style="html=1;verticalLabelPosition=bottom;align=center;labelBackgroundColor=#ffffff;verticalAlign=top;strokeWidth=2;strokeColor=#0080F0;shadow=0;dashed=0;shape=mxgraph.ios7.icons.data;" vertex="1" parent="1">
          <mxGeometry x="429.81" y="67" width="80" height="83" as="geometry" />
        </mxCell>
        <mxCell id="J91V88tePF2h57GKHvIk-54" value="" style="shape=image;verticalLabelPosition=bottom;labelBackgroundColor=default;verticalAlign=top;aspect=fixed;imageAspect=0;image=data:image/png,iVBORw0KGgoAAAANSUhEUgAAAOEAAADgCAMAAADCMfHtAAABIFBMVEX///8ku7H+0QoAd8wbqfXvUJiTyD7+zgAAtqsAovT+zQAApfUAa8gAccoAc8sAdcsAacgAbcnuPpDuRJPvSpWPxjOLxCaQxzeKxCP/9NH+5ZD/99//+un//fbL3fGA0svV7+3o9vXE6eb0+/vu9uSU2NP+1Cn+1jn+2lj+4Hf/8sn+3Wn///z/777/6qfk8/223vva5/VjycIZfc6x4t7+2Ev+6J797PP+9vr2q8r4v9b/7LL60OH+21vzhLP0k7z+4oT84OtEs/ai1fpamNekw+eIy/k5idJ8rN45sPbL5/xEwrmKs+FrwPem0Wfg7s6czFLS57ev1Xi72471ncHxbafwXp/4udLyea1hvPe80+1TldaYvOSuyurZ6sHH4aT/knecAAAMbUlEQVR4nO2daVvbOBSFyQJxSELIHvYlLGUpYV8KbdlaSoFCoS1LKfz/fzF2EsuSLVuSdaWEeXK+zdS1886VzpGulUxPT1ddddVVV1111ZVKjS6uHC5tzc9FTc3Nv1sY3h8aa/dnAtPy4vBWwlQUl/nP/dGllZF2fzh5jW7Pu+FIzqX3b7mWYyvz/nQO5dJiuz9oSI0ssfFakNHhN1jIxS1OvCZj/8Jouz+xmIbmRfga6l94Q3Uc/SjM1yjkcLs/OK+GQ/FZiNE34Tkjc2EBLcal5XZ/fqaG+8PzNTTUboJgjQk5KFX9HT0bR2TxLCXetRvDX++lC9jUXKdm47bsFERKdOaKPHRI0BA70W8gATsScRsUsA0DdXfn6Ghnx//P98HmIELUZze7B79+F/JN/fm0d0S7ZhEc0JSm5c2Hh3yhWOy1VSzke395ajkKPESbmtfBt1coOHSIMv/gKqQKPnOcLijnuy8UPHgtxk+72HVLSkpoIu6r5dv9nafzNRk/oAv3FQGqdpuDvHd84sqjkaoMUO1UvA8oYJPQvlKNzTSV2FYG+IsF2PvHvhRqvU1HVDVO95iAxU/2tbDLNbc+qgE8YAL2Fu7tiz+qBFS0QN1hA/YWDuyrlQKam0UVhH+CXbShvB2IY0oHqVnE9/CAez45T8q+elExoYIi7nKMUcxooLdNHiXAm6ifOcZob3HPvnxJMWA0ugUMyFVCfUYThd8M881CbUZj6RCWkIev1zGaIQ2ECVDAI65BWnywr1/RQQjqNXs8PoMZzYJ6wGgUdCv8wEXoGM2cDkLQYcrlM715u1WzrGGQwi5OeZakVg3t60f0EAK+jxI1GnUdDEKAoX/ANUqLv+zrD7UAQk7ED1yEBdSGmtdECLes4SNERqOyC0UQwvUVOQnty/UYTRRy4cY1D4u/7cs1GU00Cvfmm8tLtRuNKTBCrr2TYzRbugABzZQDUE+720UId+jtE08Xyr5YZbvbRQgXF/ccVqOn3U0Swq1MdxgvZEwVP9sXq213E4SAW8S9h3ye8loUk9PufqcLELrhdnT/qRBA6RiNNkAFLcWenQ+fe30o22A0KggtWacw8vmiGxMZjfJ2t3LChg72fpMT0zEa5e1ujFDxGamjvQdnYjpGo77d7RBqOCJ1ZE9Mne1uh1DTCSnTfv7ktba7ESHQAan6ao15zS4qoUajAdpbrB4nU8nzq9U65/UajQbk2MlJPBVvKJVMXZ2scfwNjUYD0PVetflsyuTj1++MIaul3d2U9Lma+jnB16JMJY+DKMdUnLj0I5QMi5Oklw9Rxn0npj7AqGRWPFIKSA7Z+NUJhVLHi7WG5uQ2+PU4A9C2n8eT766/qocvIdnSX+Ph85mYWjbAsudo13ynoC9lHJVSx6s12a9B1QUBGzpHf/1QOWK/ZDu/zj9EMSVREZVvgclN07g4YRg+U8foBqrf4hMpcTq48UUQkBUTvkVEa7pRpalPpsRZJpbNZYQY/YOepUd0D4WHS8mUqG8MxExlMxv8YzWUy7SKiPJf3YGhxBL+Ydcy2VhT2fQpL+FxaMB4/ArdRdW7GTIlntI2oKmBLM/Ox9xNhC+hWUSU+4q2wWRKfBmM4coOcs1GCT4z+L+i+yjZQ5Ep8S0dcyn9jQ14EtJHPUVU8naG2Cyd5tyAsViGPRml+MwinqA7wfN5UoIiJuKqXAlNRHQr6Hf51JTwKsdAlDFStUV0pUQuSwc0ES+DACWyEAndDLTnFpASbg0+BRBK+kyjiKv2zSA3UWRKPA/681nZH9D3lB6kcXwTtc/7c0lMka+YvCnhQjzzBawBDFJsE9XTsxKFYWSmhGsq+ib/d/lBGsc3Uabei/9ukkc8KeFC9Gt2foUgTLlmwdBHua0UZ0oQGvBb2zwCAMa903x0QWJC+u0lgjXoYzbyeKlz6vgYGw47IRP8KcFRRHmjSR1Tb2wpnOkE7iWClKb+l5bO+9QV7ba2QpiOWErgyjzTPoKslSa/0u6KSdh0BFMCUzamgDB5gt9s4mKa8ggx0xFOCXyY0vo2coTJVfxe60bEiGxSHjI2zMmYmMff0ddjPCmBaYC2AJciTBLvZy6MiCnDmKVNeC7TCZcSjrIbwIQpvAtUi9gyjIkpypPYppM4xK/nTglMtPW3jJfit5uK4DLWJymMQ1uBptO/gl8skBKOMpRNVGhCMucnjQgpg2o6IwGmEz4lHFEnYkhCMuen3YAWo6DphE8JR1laO+M8HOAjfo9NCqCo6eApURNMCYeQZjVXYQCTxEJmlg4oYDqulODaS1CVpjwtTBODXMhM+AIGmM473HS4O05sQsqgCREXnpwPFt10sJWOfEo4hLQdlLDV0HKewRhoOgAp4RDSXtSIboEJwBobr8VIM53lbdN0yB8suQyVEsGEoi1v/5wPZqSbzv48REo4hLRRKrgHDsx5BiTVdHCFTYlgQpG8YOc8g5FqOrYkUgIRUm/8nbuIXDnPYKSaTkPiewmPshn6rXm73inOnGcxUlc6PeMyKWET+nS+OYsokvPBjDTTkUuJlnx7plxFJBsWzJxnQLpNRzIlWvI9YsNzZo9cyPDkPIORNB2JlRqmnO/JjCtmJobKeQYjbjr/ZHOiIbqVNsQCTIXMeQaj4dQxBlBE6vawJZbZ4ICCOR8sp4iSqxlLuX/+hIGvoMiGhXjOB8hwBuqGfBHpbX1b/ocTAXI+ABHd+Em6iEGD1JJfOwMm530JZ+GKSG15sxHBct4P0SmiZCRSmzSEajRE0JynEjpFPJMrYqDPtHTsmYvQOU9DRPYwLlVEdgktXblCQ0HOewknYIqYDjo05Ig8Da0m5z2IaBm+JlHEgAM1pIivrinLeVJOEf9K9BF5vwxqlTGlOuddwooYegvlf2CIotqVxUg2LIBz3qV19JzTkH2Mgb8CgKbqV8kksZCBznmXjEnJIvL5KFlHIiXgc94lySJmc/yTkCoFOe+SU8R6CDvNUvvAAlKS8y5doKd9G8wNiDlqdjDE17ww1S7U85lFdLbC9afLs3SOv7OYZS64gzWlgy+CF7Gh8ee/uXSGp5i835rxk8KcJ2V4m+Fr/06zzGLmztg/bhEklTnvFvUD1J++bQRQZgcDD+l3FqBjp27Vxi//mpSUIZsT+HoeXev6ALFNFFVrX04zadJlMznqWUQhaQT0GaWE6v+sIdukzGbSl3IzsCGNgxRb1gSq1syS9MYzAF/PlM5piJoZHD8LMf4sO/9a0hYVETwtqn13P2dgAJjSaqX2oJsp95VK5dKtFkq1m0KX7Ie+lPosVUrl8o/Xa8X/V0CdhMhoXpuENuXN3YvCYire9+JyjOZHpY9QpVTtUzZkdRIioyn1eVWxJubr9dsmtJtRptHQZVJWzYkJ9xvCugntZ77QaohTmhPzTRLSjMZHpSqcwerzUsdobisswr4SXBE1EqJXwcwSmmP1DoxQ35oGGc2Yn9HgugEj1LcuRUZzzUNYBiPUt7dAfSi20ViEcPmvjRC9feIwGpMQLvu1tEojuNFw8JlmCkc4oYtwsvXAsSoXIVxc6Ip8MaOBJNRlpmJGAzkPdVmNmNFAeqkmq3GM5oYHsK8MuMHQMxGR0SxzGU1fCQ5Q00REXSg+o6n8ACTUNBHtp/3kMprSKyShlkREm8M7PqMBbWfoGKbO5pDPaCqQgFpezqAu1DJf3sNtDxvS4KbsLhShKnBnsaZhmNrP4jKayi0soA6vETMa6BJq2AZjRsNBCD0LLal+1e20u3mmIbCRNqS6iEJGU1XQ2lc+E/na3U2VQZczSIrtFG0O79jtbnAfbUltZxhtDt3v1fQBqt0mOptD1jQsqwNUajZoczjD2BxW1czBlhSu3ZxzNK/VgGFaqihxUUfqxin2kJkfZR/GSvVO8ZkFZX7qOq93fUNjLFVvNRw9UbNRxL7WZTPeVksEZKlcutNzgEhFZGBfeXK0/HJ3Uy2XS6bK1mkTxfMPE7zbGL6n9ZZnrl9+/ny51nX6qyXwb11csJ+pWcCInQcIjNiJgJCIRmcCwtmNv8m0XTDnM7w52EGaisgzUr4+0lGS/SqbcUH70a+OktxI7egRaqsWvozGxWS7Pz2fpsPNRsPw/aWvztOmIc5oTEB8DUSfZsUYjbfGZ2mT/wu0fr/S1vGanOAppGGsd3gCBmp63QikNPE2Oz4AWZqctSg9mNa/u5iYfpuj06vJzdn1iwZUS5H12c3J/wsdptrUpKmp/yFZV1111VVXXb1B/QfLIPdsEA/Z1wAAAABJRU5ErkJggg==;" vertex="1" parent="1">
          <mxGeometry x="459.76" y="69" width="20.09" height="20" as="geometry" />
        </mxCell>
        <mxCell id="J91V88tePF2h57GKHvIk-35" value="" style="shape=image;verticalLabelPosition=bottom;labelBackgroundColor=default;verticalAlign=top;aspect=fixed;imageAspect=0;image=https://miro.medium.com/v2/resize:fit:821/1*DDtWOU2MFVJuSX0cX02PfA.png;clipPath=inset(5.75% 33.33% 5.75% 33.33% round 5%);" vertex="1" parent="1">
          <mxGeometry x="362.5" y="122" width="28" height="28" as="geometry" />
        </mxCell>
        <mxCell id="J91V88tePF2h57GKHvIk-56" value="" style="rounded=1;whiteSpace=wrap;html=1;strokeColor=default;fillColor=light-dark(#ced7fd, #ededed);" vertex="1" parent="1">
          <mxGeometry x="590" y="60" width="210" height="338" as="geometry" />
        </mxCell>
        <mxCell id="J91V88tePF2h57GKHvIk-57" value="ImageRepository" style="whiteSpace=wrap;html=1;aspect=fixed;rounded=1;shadow=1;" vertex="1" parent="1">
          <mxGeometry x="615" y="236" width="160" height="160" as="geometry" />
        </mxCell>
        <mxCell id="J91V88tePF2h57GKHvIk-65" style="edgeStyle=orthogonalEdgeStyle;rounded=0;orthogonalLoop=1;jettySize=auto;html=1;entryX=0.5;entryY=0;entryDx=0;entryDy=0;" edge="1" parent="1" source="J91V88tePF2h57GKHvIk-61" target="J91V88tePF2h57GKHvIk-57">
          <mxGeometry relative="1" as="geometry" />
        </mxCell>
        <mxCell id="J91V88tePF2h57GKHvIk-61" value="minio" style="html=1;verticalLabelPosition=bottom;align=center;labelBackgroundColor=#ffffff;verticalAlign=top;strokeWidth=2;strokeColor=#0080F0;shadow=0;dashed=0;shape=mxgraph.ios7.icons.data;" vertex="1" parent="1">
          <mxGeometry x="655" y="67" width="80" height="83" as="geometry" />
        </mxCell>
        <mxCell id="J91V88tePF2h57GKHvIk-66" value="" style="shape=image;verticalLabelPosition=bottom;labelBackgroundColor=default;verticalAlign=top;aspect=fixed;imageAspect=0;image=data:image/png,iVBORw0KGgoAAAANSUhEUgAAAYMAAACCCAMAAACTkVQxAAAAllBMVEX////HLEjh4eHEEjn++/z89vfDADLEEDfntLvx0tf24uXtxcv88/X68PHDAzTILUrLPVbFHj/KysrU1NTq6urR0dHz2NzelZ7FHD7lrrX09PTcjJjXeojQW27qvsTJNU/NS2DgnKbSZHXVcoDjpa7Tanr46OvVc4HagpDAAB6wsLDPV2rgm6TvzNDOUWXLQlrBACO+ABIPBH3aAAAGXElEQVR4nO2a6ZaiOBiGtaPiCmaWMgwIrlX2WGr3/d/cBKIsyhIU+GrqvM+PPi0FCfkesqfz7w9ATOePDqAGDuiBA3rggB44oAcO6IEDeuCAHjigBw7ogQN64IAeOKAHDuiBA3rggB44oAcO6IEDeuCAHjigBw7ogQN64IAeOKAHDuiBA3rggB44oAcO6IEDeuCAHjigBw7ogQN64IAeOKDnb+oXAHDwBYADeuCAHjigBw7ogQN64IAeOKAHDuiBgxT98cTzhrY99LzJ27SlTJtwsFvNN6Pqjw2P86MX/5xY8wieCMfuPN9MShP79OOn/ejqW5CmNcx8on9yNhdmGowxIeQ/8r/+xpnMqhekKg04cMxul5ubcbWnTitDPjaI4zORv28MYgfOQN5mnL2sNBIsRPw0i66OzOBnhoOZveQG5907OGfsuH6vVpLK1O+gP1Cvb7oV3n20NFWpL9GlCctyMLvex3y7V5TgIhFPEWdjZDoYbRlLxj8tQ5ga9e4V6ndwi1KXM0ezRR1vjajUUWSzHYyjq6y77ucnWcHBeH/LnQs2YNZqudkszxYbGOJ23Tg/0bZq06ADWXi+KAjTjXc38RFa2g6C5J3cqqbvYHHNnRvWdjeaRfn3pqOd65vXNs34KKx2L9GoA1n87q7k9r5jJGt+FQdBVXNzuh1dB9OzSlAwJ/NTf/vk6gZuVezg9Pmz9hRTDoKGO3sYcmUt0h1hNQdBL75/y0pX08HM58rlLr/C2l1VF0RmRjXQuANZ5nlul2YLcXdzVQdB57/KSF/PQd8KbzPc4obGUUM01lBNaMFBt2seMz8hz38I6BMOghheHoaqeg72SkFZe9nx1KfiN9MntOJAfqv7h28onBDU40CGcb5Lx0fLwTB8A8MuL9QozFY4VYOhRTsOHqcL0YSgHgcysnyRnNLqOOhZ+oG1la5GpmttOUhPF8Yfg4c56YsO7oaqOg48VRH1GphzmNLi+bjk056DIEhqVpWaENTnQGYgtrcmT8dB2BuItV6xvDDj1UuhyaFNB8F0we70F/kGXnQQrlOp7l/HwTz4o6nbvIRLMEYTS3jtOpABsPj9cLROB4GFYzBU/Sx3MAubIlO3XKvQwamOEN3RtoMyqjkQmTXK8IenefKu6N1SDsbqRXXL9RHkxcrWa5+hYQe8qN1RsFRUKzlY7fZmZvrpNAsdWLrlcv+nDvhh7BRbYL43Xj7pgMlGZ+w+TLUfyGuLwhdlHU3CtzSaWMVu1oEhO8jZId+CWkwaJqJY1YFMf1Hcw+Q6UNODge6OZVgs7R68Cs07CBboc1oMS81Q7ZccdDr9tVXYU+eNi5bh2LRwSTHmLezB5y+FJoc2HMgCLB/XJYR/W1541YH8pIeXrIWPEgd2lSF/OJng7nMxKaYdBzKid6tDoruOov26A4m3MvKavDwH0zAtprFcdN2J7pqNLF+35SC9SipYch+yFgcyTJucBZDcNTtHSdAI7CxMiG+qhUKT9hzEmyGcpbc4a3IQDJIyO55cB72L+nuphHe11cOaOWHRpoNg79YQzHDu9qxqcxAMwszHQVL+/sFYNZBlq9cTlaap2X1XpV0Hnf7E9h6WXGp0EAySxP0gqWAv86QO4hSem5DDOqWgdKvnSVp2kEmtDiS7u6Fq0Z7+6Dp5MfNOjZ2W117G1Oq7n+E7OpCzvtQgqfBsy+x4HbAxc2+fUhO2/mgYHf4SflM7+t/VQbBPF1soOeNl36oNFwa7bPbuwXEO7n5zYcZths+b2by58l0dyHnh/hbBsrOOvbWfqDb8RnSBdQ+Nnvz9vg7kvQcWpDyIv+Gc86YyM5cbmatOnLHNUOOw4Cs04OD3IOKnloPdr/gJM3Lg/TQjfscOfiZSL13EnC74gH3Gv0dBmr8yO9feaLEUpsHErRqI4PT72Zk0LKDThINOP4HWA73MJ3rTBNmp6+zGp25SaeY+1puNhuuD+7HdfriHxfD03twZ0yQNOAAVgQN64IAeOKAHDuiBA3rggJ4f1C8A4OALAAf0wAE9cEAPHNADB/TAAT1wQA8c0AMH9MABPXBADxzQAwf0wAE9f1G/AICDLwAc0AMH9MABPXBADxzQAwf0wAE9cEAPHNADB/TAAT1wQA8c0AMH9MABPf9QvwCAgy8AHNADB/TAAT1wQA8c0AMH5PwH6y9p7peU/AEAAAAASUVORK5CYII=;" vertex="1" parent="1">
          <mxGeometry x="674.9" y="72.25" width="40.19" height="13.5" as="geometry" />
        </mxCell>
        <mxCell id="J91V88tePF2h57GKHvIk-68" style="edgeStyle=orthogonalEdgeStyle;rounded=0;orthogonalLoop=1;jettySize=auto;html=1;entryX=0.862;entryY=-0.008;entryDx=0;entryDy=0;entryPerimeter=0;startArrow=classic;startFill=1;" edge="1" parent="1" source="J91V88tePF2h57GKHvIk-57" target="J91V88tePF2h57GKHvIk-8">
          <mxGeometry relative="1" as="geometry" />
        </mxCell>
        <mxCell id="J91V88tePF2h57GKHvIk-70" style="edgeStyle=orthogonalEdgeStyle;rounded=0;orthogonalLoop=1;jettySize=auto;html=1;entryX=0.5;entryY=0;entryDx=0;entryDy=0;startArrow=classic;startFill=1;" edge="1" parent="1" source="J91V88tePF2h57GKHvIk-69" target="J91V88tePF2h57GKHvIk-42">
          <mxGeometry relative="1" as="geometry">
            <Array as="points">
              <mxPoint x="410" y="-60" />
              <mxPoint x="145" y="-60" />
            </Array>
          </mxGeometry>
        </mxCell>
        <mxCell id="J91V88tePF2h57GKHvIk-72" style="edgeStyle=orthogonalEdgeStyle;rounded=0;orthogonalLoop=1;jettySize=auto;html=1;entryX=0.5;entryY=0;entryDx=0;entryDy=0;" edge="1" parent="1" source="J91V88tePF2h57GKHvIk-69" target="J91V88tePF2h57GKHvIk-56">
          <mxGeometry relative="1" as="geometry">
            <Array as="points">
              <mxPoint x="410" y="-60" />
              <mxPoint x="695" y="-60" />
            </Array>
          </mxGeometry>
        </mxCell>
        <mxCell id="J91V88tePF2h57GKHvIk-69" value="BFF" style="whiteSpace=wrap;html=1;aspect=fixed;rounded=1;shadow=1;" vertex="1" parent="1">
          <mxGeometry x="330" y="-250" width="160" height="160" as="geometry" />
        </mxCell>
        <mxCell id="J91V88tePF2h57GKHvIk-71" style="edgeStyle=orthogonalEdgeStyle;rounded=0;orthogonalLoop=1;jettySize=auto;html=1;entryX=0.452;entryY=0.006;entryDx=0;entryDy=0;entryPerimeter=0;" edge="1" parent="1" source="J91V88tePF2h57GKHvIk-69" target="J91V88tePF2h57GKHvIk-47">
          <mxGeometry relative="1" as="geometry" />
        </mxCell>
        <mxCell id="J91V88tePF2h57GKHvIk-76" style="edgeStyle=orthogonalEdgeStyle;rounded=0;orthogonalLoop=1;jettySize=auto;html=1;entryX=0.5;entryY=0;entryDx=0;entryDy=0;" edge="1" parent="1" source="J91V88tePF2h57GKHvIk-74" target="J91V88tePF2h57GKHvIk-69">
          <mxGeometry relative="1" as="geometry" />
        </mxCell>
        <mxCell id="J91V88tePF2h57GKHvIk-74" value="App" style="whiteSpace=wrap;html=1;aspect=fixed;rounded=1;shadow=1;" vertex="1" parent="1">
          <mxGeometry x="330" y="-480" width="160" height="160" as="geometry" />
        </mxCell>
        <mxCell id="J91V88tePF2h57GKHvIk-73" value="" style="image;sketch=0;aspect=fixed;html=1;points=[];align=center;fontSize=12;image=img/lib/mscae/CustomDomain.svg;" vertex="1" parent="1">
          <mxGeometry x="450.29" y="-370" width="59.52" height="50" as="geometry" />
        </mxCell>
      </root>
    </mxGraphModel>
  </diagram>
</mxfile>
